<?xml version="1.0" standalone="no"?>
<!DOCTYPE svg PUBLIC "-//W3C//DTD SVG 20010904//EN"
 "http://www.w3.org/TR/2001/REC-SVG-20010904/DTD/svg10.dtd">
<svg version="1.0" xmlns="http://www.w3.org/2000/svg"
 width="1279.000000pt" height="1276.000000pt" viewBox="0 0 1279.000000 1276.000000"
 preserveAspectRatio="xMidYMid meet">

<g transform="translate(0.000000,1276.000000) scale(0.100000,-0.100000)"
fill="#000000" stroke="none">
<path d="M6185 12534 c-22 -2 -103 -9 -180 -14 -1050 -81 -2145 -469 -3015
-1069 -866 -597 -1555 -1384 -2029 -2320 -388 -766 -606 -1577 -662 -2456 -14
-232 -7 -684 16 -915 62 -647 226 -1295 475 -1880 52 -122 206 -435 272 -554
369 -667 857 -1261 1438 -1751 1015 -857 2291 -1369 3630 -1456 352 -23 847
-4 1210 46 663 91 1300 287 1905 585 641 316 1138 672 1646 1179 352 353 602
660 846 1041 251 392 476 853 627 1284 244 694 356 1345 356 2071 0 726 -112
1379 -355 2070 -101 286 -189 489 -339 780 -591 1149 -1548 2101 -2695 2684
-710 361 -1444 574 -2261 657 -145 14 -784 28 -885 18z m705 -214 c1397 -97
2667 -641 3690 -1581 1079 -993 1743 -2322 1906 -3819 21 -196 30 -790 15
-1003 -73 -1005 -379 -1946 -910 -2792 -41 -66 -90 -140 -108 -165 -18 -25
-41 -58 -51 -74 -32 -52 -229 -310 -338 -441 -134 -162 -528 -557 -694 -697
-952 -802 -2053 -1268 -3310 -1404 -196 -21 -748 -30 -965 -15 -1004 67 -1940
367 -2790 895 -941 583 -1699 1415 -2201 2418 -276 551 -465 1143 -563 1763
-106 672 -92 1385 40 2065 227 1171 809 2262 1655 3105 409 407 824 720 1349
1015 156 88 474 238 660 312 610 242 1202 373 1895 421 113 8 589 6 720 -3z"/>
<path d="M5975 12106 c-64 -28 -68 -37 -61 -165 13 -229 26 -340 50 -422 47
-158 140 -229 300 -229 111 0 279 42 308 78 11 13 10 14 -7 9 -11 -4 -67 -3
-126 2 -113 8 -178 31 -230 80 -62 60 -78 130 -115 481 -9 85 -21 161 -26 168
-13 16 -55 15 -93 -2z"/>
<path d="M5422 11993 c-53 -11 -157 -54 -194 -80 -119 -82 -178 -234 -149
-384 48 -242 251 -370 473 -298 147 48 230 123 273 245 29 80 31 137 10 219
-35 134 -113 235 -214 274 -51 21 -157 33 -199 24z m66 -129 c58 -29 106 -79
142 -151 21 -40 25 -62 25 -138 0 -78 -4 -98 -27 -146 -39 -78 -68 -103 -120
-101 -84 4 -178 75 -229 174 -18 34 -23 60 -23 128 -1 77 2 92 32 153 53 108
105 129 200 81z"/>
<path d="M4570 11671 c-112 -36 -158 -74 -218 -183 -30 -53 -35 -73 -36 -128
-2 -200 124 -352 302 -367 55 -4 82 0 150 22 156 49 240 150 250 297 4 64 0
83 -27 155 -72 186 -234 265 -421 204z m109 -115 c55 -28 105 -82 132 -140 28
-61 25 -167 -5 -231 -28 -62 -49 -79 -90 -78 -102 3 -222 132 -226 243 -5 131
-2 145 40 189 48 49 78 52 149 17z"/>
<path d="M3482 11390 c-18 -11 -35 -26 -38 -34 -11 -29 281 -528 357 -610 64
-69 155 -140 169 -131 19 12 -7 151 -47 248 -16 39 -22 69 -18 86 6 24 55 152
60 159 2 2 21 -6 43 -17 49 -25 87 -65 149 -157 58 -86 102 -138 109 -131 12
12 24 85 24 149 0 84 -29 167 -72 203 -48 40 -120 73 -177 81 -64 8 -159 -17
-198 -53 -24 -23 -25 -29 -20 -86 5 -57 4 -60 -10 -42 -8 11 -28 45 -43 75
-16 30 -60 105 -98 165 l-70 110 -43 3 c-30 2 -54 -4 -77 -18z"/>
<path d="M8794 11246 c-89 -18 -208 -67 -284 -117 -71 -48 -166 -148 -211
-223 -23 -37 -39 -55 -49 -52 -8 3 -100 34 -205 70 -889 303 -1849 335 -2782
91 -1076 -282 -2023 -930 -2685 -1840 -87 -120 -241 -359 -300 -465 -88 -160
-114 -210 -174 -340 -515 -1121 -591 -2377 -214 -3545 125 -386 326 -811 538
-1135 31 -47 100 -150 155 -228 54 -79 97 -147 95 -150 -2 -4 -22 -39 -45 -77
-127 -213 -131 -460 -11 -688 48 -92 182 -222 279 -269 228 -113 487 -102 688
31 30 20 64 42 76 50 20 13 30 8 141 -66 188 -126 314 -198 534 -309 883 -442
1879 -603 2855 -463 2063 297 3707 1876 4084 3924 58 315 76 527 76 880 0 304
-10 442 -46 695 -117 808 -442 1587 -937 2240 -113 148 -244 300 -418 480
-190 197 -277 280 -346 329 -27 19 -48 35 -48 36 0 1 16 37 36 79 73 159 94
338 58 499 -33 148 -135 310 -260 411 -66 54 -192 118 -279 140 -85 23 -235
28 -321 12z m23 -72 c-3 -3 -12 -4 -19 -1 -8 3 -5 6 6 6 11 1 17 -2 13 -5z
m336 -31 c-7 -2 -19 -2 -25 0 -7 3 -2 5 12 5 14 0 19 -2 13 -5z m-533 -43 c0
-5 -5 -10 -11 -10 -5 0 -7 5 -4 10 3 6 8 10 11 10 2 0 4 -4 4 -10z m-3110
-114 c0 -3 -4 -8 -10 -11 -5 -3 -10 -1 -10 4 0 6 5 11 10 11 6 0 10 -2 10 -4z
m2097 -22 c-3 -3 -12 -4 -19 -1 -8 3 -5 6 6 6 11 1 17 -2 13 -5z m-2242 -24
c3 -6 -1 -7 -9 -4 -18 7 -21 14 -7 14 6 0 13 -4 16 -10z m2760 -158 c-3 -3
-11 0 -18 7 -9 10 -8 11 6 5 10 -3 15 -9 12 -12z m-3233 1 c-6 -2 -9 -10 -6
-15 4 -7 2 -8 -5 -4 -13 9 -5 26 12 25 9 0 8 -2 -1 -6z m3295 -35 c-3 -8 -6
-5 -6 6 -1 11 2 17 5 13 3 -3 4 -12 1 -19z m110 -30 c-3 -8 -6 -5 -6 6 -1 11
2 17 5 13 3 -3 4 -12 1 -19z m-20 -90 c-3 -7 -5 -2 -5 12 0 14 2 19 5 13 2 -7
2 -19 0 -25z m-100 -35 c-3 -10 -5 -4 -5 12 0 17 2 24 5 18 2 -7 2 -21 0 -30z
m-1472 -213 c404 -22 761 -92 1162 -226 254 -85 436 -159 608 -248 77 -40 167
-83 200 -95 167 -62 624 -416 880 -683 257 -267 495 -597 704 -978 l36 -65 3
60 c4 74 -23 323 -50 465 -43 227 -119 462 -225 693 -90 198 -176 342 -321
536 -105 142 -94 128 -138 179 -42 48 -40 65 2 30 215 -176 439 -473 604 -798
221 -438 329 -733 465 -1273 114 -455 127 -554 127 -957 1 -270 -10 -430 -43
-650 -80 -536 -218 -964 -474 -1465 -87 -171 -241 -441 -272 -476 -13 -15 -30
-9 -186 70 -214 107 -280 137 -487 218 -91 35 -187 73 -213 83 -56 22 -138 84
-161 120 -8 14 -28 39 -43 55 -16 17 -50 56 -77 88 -43 51 -64 65 -173 117
-68 33 -129 60 -136 60 -7 0 -17 4 -23 9 -32 29 -293 115 -462 152 -232 50
-232 50 -357 109 -126 60 -191 89 -230 103 -56 20 -122 46 -175 67 -25 10 -82
27 -128 37 l-82 18 42 8 c43 7 150 23 363 52 61 9 162 21 225 28 l115 13 -37
24 c-21 14 -38 28 -38 31 0 3 41 11 90 18 50 7 90 15 90 18 0 3 -17 24 -37 47
-34 38 -42 41 -99 46 l-62 5 21 65 c12 36 28 70 36 76 21 16 -176 28 -321 20
-62 -4 -152 -9 -200 -12 -97 -5 -166 -16 -248 -39 -30 -8 -63 -15 -73 -15 -23
0 -181 -61 -185 -72 -2 -4 -10 -8 -18 -8 -24 0 -74 -29 -167 -97 -61 -44 -92
-61 -100 -55 -7 6 -28 12 -48 15 -20 2 -43 8 -50 13 -8 5 -18 9 -24 9 -9 0
-63 32 -75 45 -37 38 -211 122 -321 154 -192 55 -433 86 -669 86 -107 0 -136
-6 -122 -24 10 -12 42 -109 42 -125 0 -7 -18 -9 -52 -6 -60 7 -61 6 -107 -52
-23 -30 -29 -44 -19 -47 7 -2 39 -9 71 -16 l58 -12 -35 -26 c-19 -15 -35 -30
-36 -34 0 -5 17 -8 39 -8 21 0 61 -4 89 -10 28 -5 147 -23 264 -40 201 -28
301 -45 340 -56 13 -4 5 -16 -37 -56 -60 -56 -82 -70 -173 -104 -35 -14 -80
-33 -100 -43 -21 -10 -71 -26 -112 -35 -107 -24 -150 -37 -190 -57 -79 -40
-167 -79 -180 -79 -7 0 -45 -11 -84 -24 -60 -20 -99 -25 -251 -31 -184 -7
-258 -20 -365 -65 -25 -10 -70 -28 -100 -40 -31 -12 -72 -36 -91 -53 -20 -18
-65 -57 -99 -87 -35 -30 -68 -60 -74 -65 -6 -6 -35 -25 -63 -44 -29 -18 -53
-36 -53 -40 0 -4 -14 -15 -30 -25 -17 -9 -91 -76 -166 -147 -134 -128 -173
-152 -188 -114 -9 25 -26 17 -33 -15 -3 -17 -10 -33 -16 -37 -17 -10 -61 -10
-68 0 -10 14 -25 1 -43 -38 -10 -20 -21 -33 -26 -30 -5 3 -17 -9 -26 -27 -17
-32 -17 -32 -25 -10 -11 28 -24 22 -34 -15 -8 -34 -24 -55 -36 -47 -5 3 -18 0
-29 -6 -16 -9 -20 -8 -20 5 0 27 -17 16 -35 -25 -10 -22 -24 -40 -31 -40 -8 0
-20 -11 -29 -23 -16 -24 -97 -87 -112 -87 -8 1 -45 53 -98 140 -16 25 -31 47
-35 50 -21 16 -154 265 -227 426 -55 120 -93 220 -146 384 l-45 135 -7 -49
c-4 -28 -5 -142 -2 -255 9 -299 38 -538 107 -859 25 -118 36 -191 31 -201 -5
-9 -15 -45 -22 -80 l-12 -64 -20 38 c-39 77 -227 581 -266 714 -172 587 -243
1224 -201 1791 39 512 199 1098 428 1565 53 107 233 420 277 480 12 17 61 84
110 150 188 258 589 617 1000 896 106 72 322 209 330 209 2 0 28 14 57 31 55
33 350 182 428 217 228 101 375 157 595 225 396 122 739 178 1165 190 52 2
120 4 150 5 30 1 141 -3 245 -8z m1586 -31 c-5 -13 -10 -19 -10 -12 -1 15 10
45 15 40 3 -2 0 -15 -5 -28z m-104 -1 c-3 -8 -6 -5 -6 6 -1 11 2 17 5 13 3 -3
4 -12 1 -19z m1266 -263 c-3 -9 -8 -14 -10 -11 -3 3 -2 9 2 15 9 16 15 13 8
-4z m-1162 -12 c13 -16 12 -17 -3 -4 -10 7 -18 15 -18 17 0 8 8 3 21 -13z
m-4881 -137 c0 -2 -8 -10 -17 -17 -16 -13 -17 -12 -4 4 13 16 21 21 21 13z
m-50 -85 c0 -5 -7 -12 -16 -15 -14 -5 -15 -4 -4 9 14 17 20 19 20 6z m5707 3
c-3 -3 -12 -4 -19 -1 -8 3 -5 6 6 6 11 1 17 -2 13 -5z m108 -234 c3 -5 1 -10
-4 -10 -6 0 -11 5 -11 10 0 6 2 10 4 10 3 0 8 -4 11 -10z m-6145 -50 c0 -5 -5
-10 -11 -10 -5 0 -7 5 -4 10 3 6 8 10 11 10 2 0 4 -4 4 -10z m-66 -91 c-3 -5
-10 -7 -15 -3 -5 3 -7 10 -3 15 3 5 10 7 15 3 5 -3 7 -10 3 -15z m6536 -174
c7 -8 9 -15 6 -15 -4 0 -14 7 -22 15 -9 8 -11 15 -6 15 5 0 15 -7 22 -15z
m810 -105 c0 -5 -2 -10 -4 -10 -3 0 -8 5 -11 10 -3 6 -1 10 4 10 6 0 11 -4 11
-10z m130 -204 c-7 -7 -13 -7 -20 0 -6 6 -3 10 10 10 13 0 16 -4 10 -10z m88
-151 c-3 -3 -9 2 -12 12 -6 14 -5 15 5 6 7 -7 10 -15 7 -18z m-8221 -297 c-3
-8 -6 -5 -6 6 -1 11 2 17 5 13 3 -3 4 -12 1 -19z m7900 -100 c-3 -7 -5 -2 -5
12 0 14 2 19 5 13 2 -7 2 -19 0 -25z m417 -6 c2 -4 -4 -8 -14 -8 -10 0 -16 4
-14 8 3 4 9 8 14 8 5 0 11 -4 14 -8z m-8406 -97 c-3 -3 -9 2 -12 12 -6 14 -5
15 5 6 7 -7 10 -15 7 -18z m9 -37 c-3 -8 -6 -5 -6 6 -1 11 2 17 5 13 3 -3 4
-12 1 -19z m-74 -101 c7 3 8 2 4 -2 -14 -16 -36 -14 -29 3 4 10 7 12 10 4 2
-7 9 -9 15 -5z m-76 -209 c-3 -8 -6 -5 -6 6 -1 11 2 17 5 13 3 -3 4 -12 1 -19z
m8926 -119 c-4 -4 -9 6 -10 24 -1 30 -1 31 8 8 5 -14 6 -28 2 -32z m-222 -2
c-10 -9 -11 -8 -5 6 3 10 9 15 12 12 3 -3 0 -11 -7 -18z m-8791 -187 c0 -5 -2
-10 -4 -10 -3 0 -8 5 -11 10 -3 6 -1 10 4 10 6 0 11 -4 11 -10z m8797 -52 c-3
-7 -5 -2 -5 12 0 14 2 19 5 13 2 -7 2 -19 0 -25z m-8900 -260 c-3 -8 -6 -5 -6
6 -1 11 2 17 5 13 3 -3 4 -12 1 -19z m9290 -100 c-3 -8 -6 -5 -6 6 -1 11 2 17
5 13 3 -3 4 -12 1 -19z m-9356 -281 c-10 -9 -11 -8 -5 6 3 10 9 15 12 12 3 -3
0 -11 -7 -18z m36 -419 c-3 -8 -6 -5 -6 6 -1 11 2 17 5 13 3 -3 4 -12 1 -19z
m8930 -300 c-3 -8 -6 -5 -6 6 -1 11 2 17 5 13 3 -3 4 -12 1 -19z m0 -100 c-3
-8 -6 -5 -6 6 -1 11 2 17 5 13 3 -3 4 -12 1 -19z m-5496 -5 c31 -7 27 -9 -31
-14 -54 -5 -44 -6 53 -7 77 -1 116 2 112 8 -4 6 8 10 29 10 20 0 36 -4 36 -10
0 -5 10 -9 23 -9 12 1 48 -4 80 -11 32 -6 73 -9 90 -6 23 4 26 4 12 -3 -16 -7
-12 -10 25 -16 61 -10 235 -69 344 -116 49 -21 91 -37 93 -35 13 13 -328 146
-374 146 -9 0 -14 3 -10 6 7 7 165 -31 217 -53 127 -53 273 -135 301 -170 15
-18 -43 13 -90 49 -25 19 -46 24 -36 8 3 -5 -25 2 -62 17 -248 95 -580 164
-771 162 l-97 -2 130 -8 c200 -13 437 -62 655 -137 93 -32 112 -40 243 -96 32
-14 55 -20 51 -14 -4 6 9 -2 29 -18 21 -16 35 -35 32 -41 -2 -7 1 -13 7 -13 6
0 9 -2 6 -5 -3 -3 -70 10 -148 30 -78 20 -184 44 -234 55 -50 10 -156 32 -236
49 -80 16 -190 39 -245 50 -84 16 -93 20 -53 20 62 1 175 -14 333 -46 127 -25
397 -93 450 -113 45 -17 51 -11 15 13 -145 98 -683 220 -942 215 -88 -1 -84
-2 117 -19 166 -13 228 -23 400 -65 137 -33 368 -104 361 -111 -2 -2 -30 4
-62 13 -32 8 -90 24 -129 35 -135 37 -439 87 -565 94 -69 3 -153 11 -186 16
l-61 11 -6 55 c-3 30 -11 61 -18 69 -10 12 -4 14 34 14 24 0 60 -3 78 -7z
m2409 -26 c-11 -11 -32 -13 -85 -9 -78 6 -60 15 39 20 53 3 59 1 46 -11z
m-138 -16 c59 -4 109 -9 111 -12 2 -2 1 -26 -2 -54 -6 -49 -7 -50 -46 -58 -22
-4 -105 -10 -185 -11 -210 -5 -520 -48 -724 -101 -54 -15 -105 -24 -113 -21
-8 4 -20 3 -26 -1 -12 -8 -18 -9 -38 -12 -5 0 -8 -5 -4 -10 3 -5 -3 -12 -12
-14 -13 -3 -12 -4 2 -2 11 1 56 12 100 24 238 63 521 109 700 116 66 2 107 1
90 -1 -540 -88 -640 -106 -814 -143 -166 -36 -167 -36 -174 -17 -4 10 8 21 33
34 22 11 37 22 34 24 -3 3 2 8 11 12 9 3 13 2 10 -4 -8 -14 1 -12 33 4 118 61
487 165 682 192 30 4 47 9 36 12 -49 11 -379 -63 -533 -119 -46 -17 -88 -27
-94 -23 -6 3 -23 -2 -37 -13 -40 -29 -72 -45 -72 -35 0 15 156 101 258 142
105 41 233 75 255 67 6 -3 1 -6 -11 -6 -53 -2 -411 -140 -385 -148 5 -2 43 12
84 31 112 52 330 115 459 134 63 9 117 20 119 25 2 5 35 5 75 2 39 -4 119 -10
178 -14z m-375 3 c-3 -3 -12 -4 -19 -1 -8 3 -5 6 6 6 11 1 17 -2 13 -5z
m-1430 -10 c-3 -3 -12 -4 -19 -1 -8 3 -5 6 6 6 11 1 17 -2 13 -5z m1390 0 c-3
-3 -12 -4 -19 -1 -8 3 -5 6 6 6 11 1 17 -2 13 -5z m-54 -11 c-7 -2 -19 -2 -25
0 -7 3 -2 5 12 5 14 0 19 -2 13 -5z m-1986 -109 c-3 -3 -12 -4 -19 -1 -8 3 -5
6 6 6 11 1 17 -2 13 -5z m46 -1 c-7 -2 -19 -2 -25 0 -7 3 -2 5 12 5 14 0 19
-2 13 -5z m114 -19 c-3 -3 -12 -4 -19 -1 -8 3 -5 6 6 6 11 1 17 -2 13 -5z
m5970 -16 c-3 -8 -6 -5 -6 6 -1 11 2 17 5 13 3 -3 4 -12 1 -19z m-5924 5 c-7
-2 -19 -2 -25 0 -7 3 -2 5 12 5 14 0 19 -2 13 -5z m2431 -2 c3 -4 -6 -6 -19
-3 -14 2 -25 6 -25 8 0 8 39 4 44 -5z m-2504 -11 c0 -5 -4 -10 -10 -10 -5 0
-10 5 -10 10 0 6 5 10 10 10 6 0 10 -4 10 -10z m2177 -36 c-3 -3 -12 -4 -19
-1 -8 3 -5 6 6 6 11 1 17 -2 13 -5z m-2142 -14 c153 -23 307 -53 452 -89 87
-22 201 -49 253 -61 221 -50 319 -74 316 -77 -4 -4 -80 11 -321 62 -108 23
-176 35 -510 91 -55 9 -155 24 -223 33 -121 16 -122 16 -95 33 33 19 49 20
128 8z m308 -7 c-7 -2 -19 -2 -25 0 -7 3 -2 5 12 5 14 0 19 -2 13 -5z m1840 0
c-7 -2 -19 -2 -25 0 -7 3 -2 5 12 5 14 0 19 -2 13 -5z m260 -32 l28 -18 -72
-7 c-171 -16 -917 -130 -1019 -156 -45 -11 -146 -24 -140 -17 6 6 212 49 345
72 55 9 116 21 135 26 78 19 320 68 395 79 105 16 266 37 285 39 8 0 28 -7 43
-18z m-676 -17 c-3 -3 -12 -4 -19 -1 -8 3 -5 6 6 6 11 1 17 -2 13 -5z m-70
-10 c-3 -3 -12 -4 -19 -1 -8 3 -5 6 6 6 11 1 17 -2 13 -5z m-1050 -10 c-3 -3
-12 -4 -19 -1 -8 3 -5 6 6 6 11 1 17 -2 13 -5z m936 -11 c-7 -2 -21 -2 -30 0
-10 3 -4 5 12 5 17 0 24 -2 18 -5z m-726 -9 c-3 -3 -12 -4 -19 -1 -8 3 -5 6 6
6 11 1 17 -2 13 -5z m5130 -31 c-3 -10 -5 -4 -5 12 0 17 2 24 5 18 2 -7 2 -21
0 -30z m-5090 21 c-3 -3 -12 -4 -19 -1 -8 3 -5 6 6 6 11 1 17 -2 13 -5z m70
-30 c-3 -3 -12 -4 -19 -1 -8 3 -5 6 6 6 11 1 17 -2 13 -5z m426 -1 c-7 -2 -21
-2 -30 0 -10 3 -4 5 12 5 17 0 24 -2 18 -5z m94 1 c-3 -3 -12 -4 -19 -1 -8 3
-5 6 6 6 11 1 17 -2 13 -5z m-430 -10 c-3 -3 -12 -4 -19 -1 -8 3 -5 6 6 6 11
1 17 -2 13 -5z m150 -10 c-3 -3 -12 -4 -19 -1 -8 3 -5 6 6 6 11 1 17 -2 13 -5z
m-60 -10 c-3 -3 -12 -4 -19 -1 -8 3 -5 6 6 6 11 1 17 -2 13 -5z m-17 -29 c0
-8 -4 -15 -8 -15 -5 0 -9 7 -9 15 0 8 4 15 9 15 4 0 8 -7 8 -15z m-145 -50
c139 -33 135 -19 27 -115 -109 -97 -179 -166 -238 -235 l-41 -48 -144 -13
c-79 -8 -157 -16 -174 -19 -16 -3 -25 -2 -20 3 48 41 264 231 279 244 10 9 60
49 112 90 69 54 93 79 94 96 0 17 5 22 18 19 9 -3 49 -13 87 -22z m458 -9 c3
-8 52 -51 109 -97 57 -46 109 -89 115 -95 7 -7 60 -54 118 -105 58 -50 104
-94 101 -96 -2 -3 -73 0 -158 7 l-153 11 -35 42 c-49 58 -121 128 -227 222
l-91 80 86 22 c104 26 128 27 135 9z m-4826 -88 c-3 -8 -6 -5 -6 6 -1 11 2 17
5 13 3 -3 4 -12 1 -19z m-40 -30 c-3 -8 -6 -5 -6 6 -1 11 2 17 5 13 3 -3 4
-12 1 -19z m4806 -105 l26 -28 -249 0 -249 0 26 28 27 27 196 0 196 0 27 -27z
m4514 -85 c-3 -8 -6 -5 -6 6 -1 11 2 17 5 13 3 -3 4 -12 1 -19z m-9250 -20
c-3 -7 -5 -2 -5 12 0 14 2 19 5 13 2 -7 2 -19 0 -25z m9263 -103 c0 -5 -5 -3
-10 5 -5 8 -10 20 -10 25 0 6 5 3 10 -5 5 -8 10 -19 10 -25z m-4360 -45 c85
-5 195 -12 244 -16 l90 -7 -45 -22 c-59 -31 -81 -57 -77 -92 4 -35 66 -71 186
-109 45 -14 80 -30 77 -35 -4 -5 -12 -9 -18 -9 -23 0 -66 -50 -73 -85 -9 -50
0 -68 34 -62 59 12 118 28 139 39 19 9 28 7 58 -13 l35 -24 -73 -6 c-78 -7
-151 -34 -180 -67 -10 -11 -21 -38 -24 -59 -4 -32 0 -43 26 -71 34 -37 128
-79 195 -88 31 -5 59 0 100 15 l56 21 20 -40 20 -40 -27 -6 c-99 -21 -129 -29
-141 -37 -16 -12 -144 0 -197 19 -23 9 -111 19 -205 24 -91 6 -208 13 -260 16
-52 3 -100 7 -106 9 -8 2 -9 19 -2 57 5 29 10 59 10 66 1 9 8 11 22 7 12 -4
54 -9 94 -12 71 -6 117 4 190 40 92 44 46 266 -63 307 -18 7 -82 11 -160 9
-78 -1 -141 3 -158 9 -21 9 -37 8 -75 -4 -84 -29 -84 -28 -81 -97 1 -34 6 -75
11 -92 4 -16 10 -62 13 -102 8 -124 15 -140 79 -180 l39 -25 -79 -52 c-56 -36
-102 -56 -154 -69 -119 -30 -296 -84 -330 -102 -18 -9 -56 -42 -86 -73 -64
-67 -74 -102 -50 -167 25 -64 60 -75 235 -75 l138 0 32 -68 c19 -43 31 -85 31
-111 0 -85 56 -120 205 -128 68 -4 130 1 255 21 91 15 208 34 260 42 52 8 137
26 187 40 51 13 104 24 117 24 14 0 27 4 30 9 4 5 45 12 94 16 104 8 132 23
132 68 0 30 -27 85 -53 111 -59 57 -150 80 -314 77 -62 0 -113 3 -113 8 0 12
100 48 167 60 32 5 117 15 188 21 147 12 263 33 312 57 63 30 93 100 73 173
-10 36 -17 44 -63 65 -29 13 -63 26 -77 29 -87 18 -80 11 -75 67 3 28 17 77
30 110 14 32 25 74 25 93 0 48 -31 115 -71 154 -32 32 -33 33 -9 28 101 -22
185 -36 221 -36 l42 0 -7 -47 c-19 -144 -24 -180 -31 -196 -4 -10 0 -47 10
-83 20 -74 43 -95 72 -67 10 10 37 33 60 51 50 39 61 70 70 200 3 50 8 92 11
92 20 0 42 -38 42 -73 0 -62 33 -102 118 -144 39 -20 72 -39 72 -42 0 -3 -16
-16 -34 -28 -32 -21 -34 -26 -32 -68 2 -38 9 -53 42 -86 21 -22 52 -48 69 -56
39 -21 146 -20 204 0 25 9 48 14 53 11 4 -3 8 -20 9 -37 1 -37 17 -83 41 -116
21 -29 51 -22 47 11 -5 47 20 119 74 209 15 25 32 71 38 102 11 53 10 60 -14
107 l-25 49 46 15 c80 25 100 27 245 27 161 0 201 -11 452 -125 17 -8 53 -24
80 -36 103 -46 315 -153 315 -160 0 -9 -75 -120 -161 -236 -68 -93 -100 -132
-217 -266 l-42 -49 -11 25 c-12 25 -77 65 -139 85 -20 6 -62 31 -94 55 -77 57
-167 74 -299 57 -154 -21 -236 -59 -333 -155 -28 -28 -75 -74 -105 -102 -30
-28 -80 -80 -112 -116 -32 -36 -71 -71 -85 -79 -15 -7 -36 -21 -47 -30 -11
-10 -81 -47 -157 -84 -195 -94 -208 -111 -224 -272 -6 -64 -11 -77 -38 -105
-61 -62 -99 -89 -196 -137 -202 -102 -291 -172 -446 -349 -27 -31 -37 -35
-124 -47 -272 -40 -623 -54 -885 -36 -184 13 -473 49 -635 79 -30 6 -76 15
-103 21 -26 6 -64 14 -85 17 -20 3 -40 8 -45 11 -4 2 -67 19 -140 38 -183 47
-487 148 -487 162 0 2 14 25 31 49 41 61 53 141 27 184 -22 37 -59 60 -155 97
-41 15 -86 37 -100 49 -22 17 -24 23 -13 40 7 11 29 31 48 45 20 13 49 36 66
51 16 15 57 46 92 69 100 68 109 117 42 208 -68 91 -46 88 -443 65 -99 -6
-126 -3 -274 26 -225 44 -296 36 -372 -41 -31 -32 -36 -70 -20 -141 l9 -37
-40 32 c-22 18 -53 43 -68 57 -15 14 -65 59 -111 100 -45 41 -99 90 -118 107
-20 18 -30 33 -22 33 26 0 91 61 91 85 0 32 -12 42 -90 74 -42 17 -70 35 -79
52 -25 45 7 106 106 207 128 130 154 172 133 213 -7 11 -5 20 4 28 24 20 236
124 328 161 43 18 51 18 89 5 86 -31 133 -19 209 50 59 55 164 120 226 142
222 77 697 200 926 238 38 7 41 6 29 -9 -23 -28 -6 -80 34 -101 27 -15 32 -22
24 -36 -13 -26 -12 -29 21 -40 22 -8 30 -17 30 -34 0 -58 24 -69 75 -35 34 23
80 25 136 8 47 -14 57 -7 42 32 l-11 30 85 0 c77 0 84 -2 78 -17 -4 -10 -10
-39 -12 -65 -5 -40 -2 -50 19 -71 24 -24 115 -57 157 -57 12 0 58 -14 103 -31
98 -38 92 -45 -53 -60 -57 -5 -105 -12 -108 -14 -7 -8 22 -36 53 -52 47 -25
246 -11 329 23 34 13 73 33 86 43 l24 19 -19 33 c-25 44 -139 101 -269 134
-107 27 -138 41 -132 58 6 19 44 20 119 2 51 -13 75 -15 91 -7 12 6 41 19 64
29 44 19 56 45 27 61 -13 7 -10 11 18 21 85 32 131 57 163 90 67 67 57 111
-33 137 -56 17 -184 16 -397 -1 l-60 -5 45 15 c83 28 550 42 830 25z m-4883
-102 c-3 -8 -6 -5 -6 6 -1 11 2 17 5 13 3 -3 4 -12 1 -19z m9154 -81 c-10 -9
-11 -8 -5 6 3 10 9 15 12 12 3 -3 0 -11 -7 -18z m2 -87 c-3 -12 -8 -19 -11
-16 -5 6 5 36 12 36 2 0 2 -9 -1 -20z m-4285 -132 c12 -14 23 -43 27 -74 8
-60 9 -59 -93 -70 l-71 -6 -5 33 c-3 19 -7 58 -9 87 l-4 52 67 0 c56 0 70 -4
88 -22z m-4751 -70 c-3 -8 -6 -5 -6 6 -1 11 2 17 5 13 3 -3 4 -12 1 -19z
m5421 -100 c35 -8 52 -17 55 -30 8 -31 -19 -32 -67 -4 -76 44 -72 54 12 34z
m1123 -229 c13 -6 19 -18 17 -32 -3 -19 -8 -21 -37 -19 -67 7 -104 25 -117 58
l-13 31 65 -13 c36 -8 74 -19 85 -25z m2246 -11 c-3 -8 -6 -5 -6 6 -1 11 2 17
5 13 3 -3 4 -12 1 -19z m-40 -160 c-3 -8 -6 -5 -6 6 -1 11 2 17 5 13 3 -3 4
-12 1 -19z m-8230 -80 c-3 -8 -6 -5 -6 6 -1 11 2 17 5 13 3 -3 4 -12 1 -19z
m7283 -62 c0 -2 -7 -9 -15 -16 -13 -11 -14 -10 -9 4 5 14 24 23 24 12z m-6890
-56 c0 -5 -2 -10 -4 -10 -3 0 -8 5 -11 10 -3 6 -1 10 4 10 6 0 11 -4 11 -10z
m-338 -132 c-8 -8 -9 -4 -5 13 4 13 8 18 11 10 2 -7 -1 -18 -6 -23z m7929
-111 c-10 -9 -11 -8 -5 6 3 10 9 15 12 12 3 -3 0 -11 -7 -18z m-7824 -119 c-3
-8 -6 -5 -6 6 -1 11 2 17 5 13 3 -3 4 -12 1 -19z m600 -24 c-3 -3 -12 -4 -19
-1 -8 3 -5 6 6 6 11 1 17 -2 13 -5z m5993 -40 c0 -10 -172 -174 -240 -228 -36
-29 -96 -73 -135 -100 -38 -26 -92 -63 -119 -82 -56 -40 -73 -43 -52 -11 9 12
23 51 32 87 33 133 53 149 286 236 65 25 142 58 171 73 28 16 53 29 55 30 1 0
2 -2 2 -5z m-6587 -34 c3 -11 1 -18 -4 -14 -5 3 -9 12 -9 20 0 20 7 17 13 -6z
m67 -110 c0 -5 -5 -10 -11 -10 -5 0 -7 5 -4 10 3 6 8 10 11 10 2 0 4 -4 4 -10z
m7420 -133 c0 -2 -10 -12 -22 -23 l-23 -19 19 23 c18 21 26 27 26 19z m-1100
-21 c0 -2 -8 -10 -17 -17 -16 -13 -17 -12 -4 4 13 16 21 21 21 13z m-6377 -41
c-3 -9 -8 -14 -10 -11 -3 3 -2 9 2 15 9 16 15 13 8 -4z m6287 -39 c0 -3 -4 -8
-10 -11 -5 -3 -10 -1 -10 4 0 6 5 11 10 11 6 0 10 -2 10 -4z m1030 -80 c0 -2
-8 -10 -17 -17 -16 -13 -17 -12 -4 4 13 16 21 21 21 13z m-150 -160 c0 -2 -8
-10 -17 -17 -16 -13 -17 -12 -4 4 13 16 21 21 21 13z m-340 -310 c0 -2 -8 -10
-17 -17 -16 -13 -17 -12 -4 4 13 16 21 21 21 13z m-4730 -26 c0 -5 -4 -10 -10
-10 -5 0 -10 5 -10 10 0 6 5 10 10 10 6 0 10 -4 10 -10z m4660 -25 c0 -8 -4
-15 -10 -15 -5 0 -7 7 -4 15 4 8 8 15 10 15 2 0 4 -7 4 -15z m-1870 -55 c-8
-5 -22 -9 -30 -9 -10 0 -8 3 5 9 27 12 43 12 25 0z m-2263 -76 c-3 -3 -12 -4
-19 -1 -8 3 -5 6 6 6 11 1 17 -2 13 -5z m216 -1 c-7 -2 -19 -2 -25 0 -7 3 -2
5 12 5 14 0 19 -2 13 -5z m1694 -9 c-3 -3 -12 -4 -19 -1 -8 3 -5 6 6 6 11 1
17 -2 13 -5z m-1139 -61 c-10 -2 -26 -2 -35 0 -10 3 -2 5 17 5 19 0 27 -2 18
-5z m690 0 c-10 -2 -28 -2 -40 0 -13 2 -5 4 17 4 22 1 32 -1 23 -4z m-695 -20
c-7 -2 -19 -2 -25 0 -7 3 -2 5 12 5 14 0 19 -2 13 -5z m57 -3 c18 -12 2 -12
-25 0 -13 6 -15 9 -5 9 8 0 22 -4 30 -9z m-2235 -38 c-3 -3 -11 0 -18 7 -9 10
-8 11 6 5 10 -3 15 -9 12 -12z m4980 -112 c-3 -5 -11 -10 -16 -10 -6 0 -7 5
-4 10 3 6 11 10 16 10 6 0 7 -4 4 -10z m-4428 -215 c0 -8 -4 -12 -9 -9 -5 3
-6 10 -3 15 9 13 12 11 12 -6z m4003 -20 c0 -2 -10 -9 -22 -15 -22 -11 -22
-10 -4 4 21 17 26 19 26 11z m-623 -241 c-3 -3 -12 -4 -19 -1 -8 3 -5 6 6 6
11 1 17 -2 13 -5z m-177 -44 c0 -5 -5 -10 -11 -10 -5 0 -7 5 -4 10 3 6 8 10
11 10 2 0 4 -4 4 -10z m-113 -16 c-3 -3 -12 -4 -19 -1 -8 3 -5 6 6 6 11 1 17
-2 13 -5z m-529 -91 c-10 -2 -26 -2 -35 0 -10 3 -2 5 17 5 19 0 27 -2 18 -5z"/>
<path d="M7225 9423 c-50 -25 -126 -69 -171 -98 -190 -126 -398 -409 -478
-650 -57 -172 -65 -282 -54 -740 7 -258 -3 -416 -32 -499 -11 -33 -20 -61 -20
-63 0 -6 68 73 117 138 87 114 162 249 213 377 7 18 14 31 16 29 6 -6 -60
-165 -96 -232 -61 -112 -206 -311 -294 -402 -22 -24 -37 -43 -32 -43 20 0 154
88 216 141 75 64 185 206 245 314 191 346 235 444 279 621 36 147 46 252 49
529 4 296 14 358 88 514 27 57 48 105 46 107 -1 1 -43 -18 -92 -43z m21 -69
c-74 -149 -98 -287 -89 -529 14 -384 -57 -655 -267 -1015 -79 -137 -89 -152
-165 -255 -74 -99 -243 -271 -217 -219 6 11 19 27 28 35 29 23 118 149 168
237 26 45 57 88 68 96 11 8 15 15 9 17 -7 3 2 38 23 94 64 165 76 215 80 325
3 79 2 94 -5 61 -5 -25 -28 -101 -51 -170 l-42 -126 -8 64 c-10 72 -48 159
-86 193 -25 23 -25 22 2 -14 39 -52 67 -131 73 -208 5 -64 5 -66 -58 -190
l-64 -125 -7 64 c-10 87 -20 92 -12 5 5 -55 3 -77 -10 -102 -18 -36 -96 -148
-96 -139 0 3 8 34 17 69 15 53 17 99 13 298 -8 486 -5 640 13 724 32 148 119
336 212 461 59 78 196 221 265 277 48 39 231 150 237 144 2 -2 -12 -34 -31
-72z"/>
<path d="M7162 9314 c-17 -20 -51 -73 -76 -118 l-46 -81 -1 40 c-1 33 -4 28
-14 -30 -6 -38 -26 -113 -42 -165 -17 -52 -36 -113 -42 -135 -18 -69 -41 -256
-40 -324 l2 -66 7 70 c18 160 53 251 146 380 l36 50 -41 -43 c-22 -24 -54 -65
-71 -90 -28 -42 -31 -44 -25 -17 31 137 150 418 226 533 28 43 18 41 -19 -4z"/>
<path d="M6748 8584 c6 -11 17 -26 25 -32 22 -19 88 -167 97 -219 6 -39 8 -42
9 -16 1 46 -36 148 -76 210 -36 55 -76 97 -55 57z"/>
<path d="M6910 8090 c-14 -10 -23 -21 -20 -23 3 -3 19 6 35 19 35 28 22 32
-15 4z"/>
<path d="M6285 7200 c-38 -10 -104 -30 -145 -45 -134 -49 -150 -73 -72 -106
80 -35 100 -39 332 -54 124 -8 261 -20 305 -27 l80 -12 -70 -8 c-171 -19 -308
-41 -415 -64 -143 -32 -443 -129 -460 -148 -6 -8 -10 -25 -8 -38 2 -19 17 -28
85 -50 89 -30 241 -58 316 -58 135 0 215 -104 218 -285 l1 -60 10 40 c11 45 4
137 -14 199 -8 25 -31 59 -58 86 -39 40 -56 49 -133 69 -48 13 -97 31 -110 41
-22 19 -22 19 -2 34 23 17 53 23 150 31 280 23 630 91 785 153 67 27 75 33 75
57 0 24 -8 29 -74 55 -40 16 -97 34 -125 40 -81 18 -512 60 -612 60 -57 0 -97
5 -108 13 -15 11 -9 16 54 47 108 52 107 60 -5 30z"/>
<path d="M4499 6320 c-13 -11 -42 -38 -64 -59 -22 -21 -94 -67 -160 -101 -66
-35 -131 -70 -145 -80 -14 -9 -30 -19 -37 -21 -11 -4 -310 -288 -437 -415
-112 -113 -305 -361 -359 -460 -30 -57 -33 -74 -14 -74 14 0 47 -35 47 -49 0
-5 8 -12 18 -16 15 -6 15 -8 -4 -15 -12 -5 -25 -25 -33 -51 -7 -23 -19 -53
-27 -65 -19 -28 -54 -123 -54 -145 0 -9 -9 -24 -20 -34 -11 -10 -34 -41 -52
-69 -17 -28 -47 -69 -65 -91 -19 -22 -37 -45 -41 -50 -6 -9 -84 -103 -144
-173 -11 -13 -16 -27 -13 -30 4 -4 14 3 24 15 9 13 53 61 98 108 46 47 86 97
89 111 4 16 12 23 20 20 8 -3 22 6 31 20 10 14 30 39 46 55 15 16 27 34 27 39
0 6 14 25 31 43 36 36 149 201 149 216 0 5 6 16 13 23 7 7 24 36 36 63 13 28
36 77 52 110 16 33 29 68 29 78 0 9 4 17 8 17 5 0 15 18 22 40 7 22 16 40 20
40 3 0 12 22 19 49 7 28 19 55 27 62 8 6 14 20 14 30 0 11 6 19 13 19 12 0 59
61 70 93 4 9 10 17 15 17 11 0 92 106 92 120 0 5 18 26 40 46 21 20 38 39 37
43 -4 12 40 52 62 56 14 2 19 0 15 -7 -4 -6 -8 -66 -8 -132 -1 -105 -5 -128
-26 -176 -13 -30 -28 -56 -32 -58 -4 -2 -8 -11 -8 -19 0 -9 -14 -43 -30 -75
-17 -33 -29 -63 -26 -66 10 -10 36 20 61 72 14 28 70 121 125 206 108 168 186
314 194 361 4 25 36 95 80 174 6 10 22 28 36 39 14 11 53 47 86 79 34 33 68
63 75 68 7 4 11 10 8 14 -3 3 -17 -4 -30 -15z m-422 -372 c-3 -7 -5 -2 -5 12
0 14 2 19 5 13 2 -7 2 -19 0 -25z m83 22 c0 -5 8 -10 17 -10 9 0 14 -2 11 -5
-9 -9 -58 6 -52 16 7 12 24 11 24 -1z m-49 -151 c-9 -23 -10 -22 -10 11 -1 23
2 31 9 24 7 -7 7 -19 1 -35z m-251 -28 c0 -12 -20 -25 -27 -18 -7 7 6 27 18
27 5 0 9 -4 9 -9z m-165 -199 c-4 -4 -10 -1 -12 6 -4 10 -8 10 -21 0 -14 -12
-14 -10 -3 10 11 20 13 21 28 7 8 -9 12 -19 8 -23z m-85 -82 c0 -5 7 -10 15
-10 21 0 19 -13 -5 -28 -11 -7 -20 -21 -20 -32 0 -22 -15 -27 -25 -9 -4 6 2
19 14 30 22 21 27 39 11 39 -5 0 -10 5 -10 10 0 6 5 10 10 10 6 0 10 -4 10
-10z m-90 -90 c0 -5 -2 -10 -4 -10 -3 0 -8 5 -11 10 -3 6 -1 10 4 10 6 0 11
-4 11 -10z m-120 -169 c0 -5 -9 -11 -21 -14 -16 -4 -18 -3 -8 9 13 16 29 19
29 5z m52 -88 c15 -18 2 -16 -16 2 -9 9 -12 23 -8 33 6 15 7 15 10 -3 2 -11 9
-26 14 -32z m-112 -19 c0 -8 -4 -14 -10 -14 -5 0 -10 9 -10 21 0 11 5 17 10
14 6 -3 10 -13 10 -21z m24 -198 c-3 -14 -11 -26 -16 -26 -5 0 -7 6 -4 13 3 6
9 20 12 30 10 27 16 13 8 -17z"/>
<path d="M6397 6107 c-9 -23 -18 -64 -19 -92 -3 -47 -2 -50 21 -50 19 0 27 7
33 30 8 31 0 142 -11 149 -4 3 -14 -14 -24 -37z"/>
<path d="M5448 6153 c7 -3 16 -2 19 1 4 3 -2 6 -13 5 -11 0 -14 -3 -6 -6z"/>
<path d="M7325 6101 c-22 -3 43 -6 144 -6 102 0 172 3 155 6 -37 8 -246 8
-299 0z"/>
<path d="M7290 6039 c-191 -20 -429 -70 -603 -126 -112 -36 -88 -40 30 -5 195
60 433 106 593 116 52 3 135 9 185 12 49 3 92 7 94 10 7 7 -218 2 -299 -7z"/>
<path d="M5040 4845 c-30 -8 -93 -14 -139 -15 -46 0 -109 -6 -140 -14 -31 -8
-108 -20 -172 -25 -167 -16 -225 -44 -200 -98 13 -27 3 -42 -27 -43 -26 0 -71
-30 -78 -52 -5 -13 -8 -54 -9 -93 l0 -70 -50 -27 c-27 -14 -55 -31 -62 -37 -7
-6 -16 -11 -21 -11 -4 0 -28 -10 -53 -21 -103 -49 -145 -103 -136 -172 6 -45
35 -80 92 -110 39 -20 106 -24 249 -14 25 2 31 -2 38 -30 10 -37 30 -42 50
-14 14 19 15 19 59 -10 49 -31 203 -75 301 -86 105 -11 198 34 198 97 0 17 -9
48 -20 70 -20 38 -26 103 -14 148 5 16 14 22 36 22 16 0 38 5 49 10 16 9 17
14 7 30 -19 31 15 52 70 44 34 -4 46 -2 56 11 7 10 58 29 126 47 132 34 167
50 182 84 10 20 8 29 -9 52 -33 45 -68 56 -175 56 -95 1 -120 8 -78 21 19 6
48 30 118 97 12 11 22 32 22 44 0 28 -36 64 -64 64 -27 0 -40 9 -55 38 -14 26
-63 29 -151 7z"/>
<path d="M5453 4784 c-50 -21 -54 -40 -32 -124 22 -83 64 -162 104 -200 29
-27 95 -34 117 -12 8 8 13 40 13 85 0 60 -5 83 -32 140 -50 104 -69 127 -106
126 -18 0 -46 -7 -64 -15z"/>
<path d="M5493 3554 c-12 -3 -34 -18 -50 -34 -16 -16 -59 -39 -101 -54 -115
-40 -156 -64 -185 -109 -29 -45 -33 -72 -15 -111 24 -53 47 -59 258 -67 306
-11 334 -19 427 -118 71 -76 127 -103 223 -109 121 -7 201 26 215 88 13 61
-27 97 -158 144 -81 29 -111 47 -133 81 -21 32 -7 52 45 61 52 10 114 35 128
53 16 21 16 69 0 86 -20 19 -85 51 -147 70 -44 14 -99 18 -270 21 -118 1 -225
0 -237 -2z"/>
<path d="M3165 11005 c-55 -21 -101 -69 -136 -141 -72 -146 -44 -239 115 -392
100 -95 194 -152 252 -152 53 0 158 38 206 74 59 45 108 119 108 163 0 39 -36
117 -50 108 -6 -4 -10 -16 -10 -27 0 -11 -5 -38 -12 -60 -14 -49 -112 -138
-151 -138 -49 0 -245 169 -294 254 -19 32 -15 109 7 160 l19 46 53 -2 c103 -5
174 58 113 98 -37 24 -166 29 -220 9z"/>
<path d="M2551 10665 c-34 -13 -76 -35 -91 -50 -39 -38 -79 -131 -101 -238
-27 -131 -14 -187 46 -213 93 -39 382 9 477 79 19 14 34 18 55 13 32 -8 133
-108 133 -131 0 -34 -44 -99 -116 -171 -100 -100 -122 -112 -184 -106 -57 5
-66 -9 -20 -33 36 -19 54 -19 117 0 94 28 276 165 345 259 35 48 37 104 7 161
-44 82 -153 155 -231 155 -48 -1 -157 -43 -209 -82 -25 -19 -57 -29 -120 -38
-101 -15 -129 -7 -129 39 0 50 28 179 49 226 20 45 20 45 71 45 63 0 173 51
168 78 -7 39 -170 43 -267 7z"/>
<path d="M10227 10585 c-32 -36 -74 -84 -94 -107 -19 -24 -51 -62 -70 -86 -20
-24 -48 -60 -63 -80 -15 -20 -57 -66 -94 -101 -37 -35 -66 -64 -64 -65 2 -2
25 -15 52 -30 45 -26 52 -27 88 -17 26 8 62 34 104 77 35 35 67 64 70 64 4 0
34 -26 69 -58 71 -67 171 -135 233 -159 101 -38 205 44 205 162 0 95 -34 158
-147 271 -95 95 -210 194 -224 194 -4 0 -33 -29 -65 -65z m228 -216 c58 -56
105 -110 105 -119 0 -28 -57 -70 -95 -70 -18 0 -75 14 -126 30 -52 17 -111 33
-131 36 -21 4 -38 10 -38 15 0 16 154 209 167 209 7 0 60 -46 118 -101z"/>
<path d="M10675 9841 c-85 -38 -145 -132 -145 -224 0 -44 40 -207 61 -249 28
-55 142 -138 191 -138 7 0 -23 38 -68 84 -87 90 -114 135 -114 187 0 32 43
119 59 119 4 0 40 -50 80 -110 82 -126 148 -200 178 -200 34 0 71 38 92 96 49
128 6 267 -116 374 -91 80 -144 95 -218 61z m184 -183 c46 -35 71 -64 71 -85
0 -35 -32 -94 -50 -91 -15 3 -97 107 -133 167 -18 31 -18 31 5 40 23 9 73 -6
107 -31z"/>
<path d="M11110 9192 c-109 -40 -201 -133 -221 -222 -18 -78 42 -230 116 -299
49 -46 73 -51 100 -21 17 19 17 20 -7 29 -30 11 -81 69 -108 120 -18 37 -18
40 -2 73 43 84 154 168 222 168 20 0 47 -7 60 -16 38 -26 100 -87 100 -99 0
-6 -12 -27 -26 -46 -21 -28 -24 -41 -19 -72 7 -45 33 -86 56 -87 41 -1 93 95
86 157 -15 135 -188 335 -288 332 -13 0 -44 -8 -69 -17z"/>
<path d="M1745 8944 c-45 -12 -112 -39 -145 -60 -69 -43 -142 -138 -161 -208
-8 -29 -27 -56 -65 -91 -30 -28 -54 -58 -54 -66 0 -22 282 -154 391 -183 30
-7 80 -26 113 -40 32 -14 62 -23 67 -20 5 3 9 36 9 74 0 67 -1 69 -37 100 -21
17 -89 56 -150 87 -103 52 -113 60 -119 89 -3 18 -3 47 1 64 8 37 43 100 55
100 8 0 70 -24 105 -40 67 -32 213 -70 267 -70 l61 0 -7 33 c-4 17 -10 47 -13
65 -13 77 -227 188 -318 166z"/>
<path d="M11651 8659 c-21 -8 -23 -14 -19 -59 8 -84 46 -118 99 -90 26 14 25
69 -1 120 -21 41 -35 47 -79 29z"/>
<path d="M11410 8549 c-74 -26 -291 -88 -312 -89 -18 0 -4 -22 52 -80 59 -62
60 -63 107 -58 26 3 105 29 176 58 143 59 148 65 122 140 -15 43 -30 60 -50
59 -5 0 -48 -14 -95 -30z"/>
<path d="M1345 8171 c-87 -30 -124 -52 -165 -99 -50 -56 -62 -99 -50 -177 14
-96 21 -124 36 -136 19 -16 78 -3 110 24 l26 23 -11 82 c-18 136 6 192 82 192
46 0 46 -4 2 -109 -37 -89 -33 -173 11 -228 66 -82 129 -101 209 -64 89 41
110 88 109 239 l-1 102 52 0 c43 0 57 5 79 26 41 42 34 50 -43 57 -45 4 -94
16 -138 36 -124 54 -217 64 -308 32z m289 -141 l25 -9 -50 -98 c-28 -54 -54
-99 -58 -101 -4 -1 -16 13 -26 32 -16 30 -17 41 -8 83 21 89 30 103 62 103 16
0 41 -4 55 -10z"/>
<path d="M11625 8174 c-79 -19 -165 -42 -244 -65 -35 -11 -73 -19 -85 -19 -47
0 -51 -15 -16 -62 18 -23 40 -49 49 -55 21 -18 120 -16 196 3 l64 16 58 -36
c32 -20 70 -47 86 -60 l27 -24 -22 -14 c-40 -25 -277 -118 -319 -124 -22 -4
-42 -10 -44 -14 -3 -4 9 -26 25 -49 l30 -41 83 0 c136 1 274 45 323 103 23 28
26 38 21 83 -6 62 -37 135 -76 185 -29 35 -29 36 -9 48 17 10 19 20 15 52 -12
89 -42 102 -162 73z"/>
<path d="M998 7527 c-32 -18 -58 -35 -58 -39 0 -3 53 -34 118 -68 64 -34 120
-65 124 -69 13 -11 -130 -133 -174 -148 -47 -16 -142 -93 -130 -105 18 -18
218 37 275 77 12 8 47 40 78 71 l57 55 68 -42 c144 -87 164 -112 165 -208 1
-46 4 -58 15 -54 17 6 49 92 67 180 17 83 8 108 -56 151 -108 74 -428 232
-468 232 -13 -1 -50 -15 -81 -33z"/>
<path d="M11853 7545 c-3 -10 -1 -42 4 -72 10 -53 9 -55 -14 -64 -13 -5 -37
-9 -53 -9 -53 0 -231 -39 -263 -58 -44 -25 -59 -58 -53 -114 5 -52 43 -133 75
-162 32 -29 33 -16 4 43 -40 79 -37 81 168 113 96 14 177 23 180 20 4 -4 14
-33 24 -64 21 -70 37 -94 55 -83 9 6 11 28 7 85 l-6 78 52 6 c29 4 58 11 66
15 18 11 10 81 -13 116 -15 22 -23 25 -81 25 l-64 0 -11 43 c-14 58 -33 91
-53 95 -9 2 -20 -4 -24 -13z"/>
<path d="M11607 6972 c-24 -26 -45 -82 -52 -138 -8 -55 13 -143 47 -200 l19
-33 -30 -28 c-18 -17 -31 -40 -33 -58 l-3 -30 70 -8 c39 -4 131 -7 205 -5 214
5 246 33 244 213 0 130 -33 216 -97 255 -34 21 -77 27 -77 10 0 -6 8 -38 17
-71 13 -47 23 -64 45 -75 32 -17 37 -53 14 -109 -17 -40 -42 -55 -90 -55 -31
0 -36 3 -36 23 0 35 -28 137 -52 186 -11 23 -42 65 -69 92 -53 54 -92 64 -122
31z m120 -184 c30 -29 33 -37 33 -95 0 -69 -1 -69 -73 -87 -23 -6 -29 -3 -38
21 -6 16 -11 44 -11 63 -1 36 35 130 48 130 5 0 23 -14 41 -32z"/>
<path d="M962 6848 c-20 -25 -62 -123 -62 -146 0 -23 -4 -26 -50 -36 -17 -4
-33 -20 -50 -53 -14 -26 -25 -52 -25 -58 0 -5 27 -12 60 -15 l60 -5 6 -56 c3
-31 9 -61 13 -68 10 -15 39 -14 79 3 46 19 67 43 67 75 0 16 6 33 13 38 6 6
59 13 117 16 82 4 119 11 171 31 105 43 115 60 110 191 -2 67 2 69 -66 -25
-20 -27 -40 -43 -65 -50 -29 -7 -189 -14 -251 -11 -12 1 -18 15 -24 55 -11 89
-70 153 -103 114z"/>
<path d="M1150 6239 c-143 -10 -211 -24 -244 -50 -23 -18 -26 -28 -26 -79 0
-43 4 -59 15 -64 24 -9 364 51 441 78 68 24 100 51 106 90 6 35 -63 41 -292
25z"/>
<path d="M745 6152 c-64 -22 -88 -58 -65 -99 19 -34 44 -39 93 -18 45 19 71
56 63 90 -10 38 -34 45 -91 27z"/>
<path d="M11550 6021 c0 -23 24 -117 33 -129 6 -7 53 -35 106 -62 53 -27 104
-55 113 -62 11 -9 18 -38 23 -100 l7 -88 -29 -11 c-39 -14 -100 -25 -218 -39
-55 -6 -103 -14 -107 -18 -4 -4 8 -25 26 -46 l32 -39 152 -5 152 -5 11 -41
c23 -88 32 -116 40 -116 16 0 28 37 35 103 l7 66 69 16 c131 30 188 62 188
106 0 37 -43 132 -75 164 -17 19 -79 64 -136 101 -57 37 -107 71 -110 76 -3 5
-14 10 -25 12 -10 2 -76 32 -145 65 -127 61 -149 69 -149 52z m474 -382 c10
-9 -18 -22 -71 -34 l-33 -7 0 52 0 52 48 -27 c26 -15 51 -31 56 -36z"/>
<path d="M1085 5756 c-55 -24 -57 -33 -44 -150 7 -58 10 -108 8 -111 -12 -12
-135 -22 -147 -13 -11 10 -26 56 -61 186 -10 34 -19 46 -51 62 -22 11 -41 20
-43 20 -15 0 -32 -109 -31 -201 1 -138 22 -189 90 -215 80 -31 251 -1 494 87
63 22 135 48 160 56 116 38 119 42 65 90 l-34 31 -53 -18 c-85 -28 -204 -54
-220 -47 -15 5 -32 74 -44 180 -6 53 -8 57 -33 57 -14 -1 -40 -7 -56 -14z"/>
<path d="M11457 5218 c3 -24 10 -53 14 -65 8 -22 79 -72 159 -113 44 -23 415
-150 436 -150 36 0 15 114 -27 146 -12 10 -389 154 -402 154 -3 0 -40 16 -81
35 -100 46 -105 46 -99 -7z"/>
<path d="M1240 5066 c-60 -19 -63 -23 -57 -83 3 -30 16 -87 28 -128 l22 -75
41 0 c23 0 55 9 74 20 28 17 32 25 32 60 0 45 -25 162 -43 198 -12 25 -40 27
-97 8z"/>
<path d="M11314 4821 c-52 -32 -67 -98 -52 -235 2 -24 -1 -29 -20 -31 -25 -2
-82 -52 -82 -72 0 -7 11 -13 26 -13 29 0 130 -49 218 -105 80 -51 168 -86 222
-87 81 -1 134 61 170 202 15 60 15 68 -1 120 -9 30 -28 70 -42 88 -24 32 -87
71 -98 60 -12 -12 9 -122 27 -140 18 -18 19 -21 2 -64 -9 -25 -30 -59 -45 -76
-25 -25 -33 -29 -61 -23 -18 4 -34 9 -36 10 -2 1 2 24 9 50 26 101 -14 264
-76 313 -36 29 -117 30 -161 3z m137 -209 c-7 -16 -27 -44 -45 -61 -30 -29
-37 -31 -67 -24 -49 13 -51 50 -7 99 64 69 149 59 119 -14z"/>
<path d="M1510 4541 c-184 -92 -420 -220 -447 -243 -7 -6 -13 -21 -13 -34 0
-40 60 -32 169 21 150 73 389 204 485 266 77 49 86 58 70 66 -53 28 -65 24
-264 -76z"/>
<path d="M1754 4407 c-104 -91 -299 -290 -365 -372 -148 -183 -175 -258 -108
-292 55 -29 252 21 594 152 77 29 164 60 192 70 29 9 55 20 58 24 5 10 -18 31
-62 56 -31 18 -32 18 -110 -12 -116 -46 -122 -46 -149 5 -12 23 -43 71 -68
107 -25 35 -46 69 -46 75 0 7 27 39 60 71 33 32 60 62 60 66 1 5 5 27 9 51 5
23 5 44 1 47 -4 2 -33 -19 -66 -48z m-141 -409 c19 -29 31 -57 27 -61 -8 -9
-146 -47 -173 -47 -14 0 -16 4 -8 18 20 37 101 142 111 142 5 0 25 -24 43 -52z"/>
<path d="M11106 4292 c-3 -5 -8 -30 -11 -58 -6 -48 -5 -51 39 -101 26 -28 74
-72 109 -98 103 -77 100 -73 93 -113 -3 -23 -17 -47 -36 -65 -59 -55 -115 -36
-265 86 -44 36 -82 64 -86 61 -4 -2 -9 -17 -13 -34 -8 -43 26 -94 134 -202 93
-92 111 -128 90 -182 -14 -39 -33 -41 -118 -16 -112 32 -181 69 -234 123 l-46
48 -7 -29 c-5 -23 1 -44 26 -89 71 -127 130 -177 262 -218 83 -27 137 -31 168
-15 44 24 62 103 46 205 l-8 51 44 11 c51 14 101 52 122 94 8 15 15 53 15 84
0 62 6 65 57 34 18 -12 40 -18 48 -15 34 13 4 106 -52 157 -15 15 -80 64 -143
109 -63 45 -138 104 -165 131 -52 50 -60 55 -69 41z"/>
</g>
</svg>
